<svg width="12" height="20" viewBox="0 0 12 20" fill="none" xmlns="http://www.w3.org/2000/svg">
<path d="M10 19.5C9.58333 19.5 9.22917 19.3542 8.9375 19.0625C8.64583 18.7708 8.5 18.4167 8.5 18C8.5 17.5833 8.64583 17.2292 8.9375 16.9375C9.22917 16.6458 9.58333 16.5 10 16.5C10.4167 16.5 10.7708 16.6458 11.0625 16.9375C11.3542 17.2292 11.5 17.5833 11.5 18C11.5 18.4167 11.3542 18.7708 11.0625 19.0625C10.7708 19.3542 10.4167 19.5 10 19.5ZM2 19C1.45 19 0.979167 18.8042 0.5875 18.4125C0.195833 18.0208 0 17.55 0 17V7C0 6.45 0.195833 5.97917 0.5875 5.5875C0.979167 5.19583 1.45 5 2 5H3V19H2ZM4.5 19V5H8V2C7.45 2 6.97917 1.80417 6.5875 1.4125C6.19583 1.02083 6 0.55 6 0H10V15C9.16667 15 8.45833 15.2917 7.875 15.875C7.29167 16.4583 7 17.1667 7 18C7 18.1833 7.0125 18.3542 7.0375 18.5125C7.0625 18.6708 7.10833 18.8333 7.175 19H4.5Z" fill="white"/>
</svg>
